<svg width="1204" height="787" viewBox="0 0 1204 787" fill="none" xmlns="http://www.w3.org/2000/svg">
<g filter="url(#filter0_d)">
<path d="M1210.81 0.999907C1191.02 67.303 1167.15 132.698 1133.98 193.422C1123.22 213.11 1111.41 232.404 1096.31 248.999C1065.53 282.838 1023.16 303.401 986.745 331.097C940.502 366.269 903.839 413.762 880.953 467.127C863.735 507.282 848.531 557.595 819.225 590.91C792.602 621.174 736.358 619.72 700.039 630.82C662.839 642.19 629.572 665.181 604.749 695.01C591.746 710.638 581.002 728.184 573.214 746.972C565.768 764.94 565.058 787.709 540.779 789.973C532.753 790.721 524.809 788.285 516.783 787.537C488.891 784.938 460.744 805.81 455.132 833.255" stroke="#3282B8" stroke-opacity="0.64" stroke-width="0.552088" stroke-miterlimit="10"/>
<path d="M1209.62 3.53834C1191.17 69.4284 1168.01 134.727 1135.06 195.154C1124.09 215.286 1111.78 234.688 1096.63 251.831C1078.33 272.488 1055.91 288.531 1032.98 304.083C1017.33 314.699 1001.44 325.085 986.448 336.55C956.836 359.2 930.728 386.379 909.215 416.452C896.636 434.037 885.635 452.612 876.436 471.9C869.954 485.424 863.693 500.078 857.028 514.808C847.636 535.501 837.433 556.342 824.758 574.672C820.213 581.26 815.351 587.523 810.094 593.311C788.348 617.227 749.081 622.561 715.887 629.981C706.977 631.955 698.503 634.078 690.914 636.753C659.658 647.67 631.509 666.891 609.06 691.405C605.194 695.625 601.496 700.003 597.976 704.527C585.424 720.658 575.072 738.66 567.374 757.808C562.816 769.15 560.686 782.253 553.978 791.291C549.849 796.856 543.989 800.836 534.799 801.972C526.77 802.964 518.792 800.903 510.721 800.439C482.687 798.807 454.236 819.749 447.997 847.409" stroke="#3282B8" stroke-opacity="0.64" stroke-width="0.552088" stroke-miterlimit="10"/>
<path d="M1208.43 6.07409C1191.33 71.5533 1168.88 136.754 1136.13 196.885C1124.95 217.466 1112.15 236.972 1096.94 254.66C1078.63 275.861 1056.19 292.526 1033.13 308.608C1017.39 319.591 1001.35 330.303 986.144 342.001C956.096 365.104 929.25 392.361 906.721 422.122C893.549 439.522 881.868 457.784 871.912 476.672C864.864 489.924 858.022 504.234 850.784 518.594C840.564 538.775 829.54 559.061 816.206 577.189C811.438 583.698 806.38 589.921 800.952 595.717C778.446 619.692 739.294 626.214 706.44 634.93C697.631 637.234 689.276 639.714 681.785 642.694C651.045 654.92 623.582 675.113 601.893 700.493C598.159 704.857 594.594 709.383 591.199 714.047C579.095 730.683 569.134 749.141 561.53 768.649C557.026 780.21 554.793 793.453 548.014 802.727C543.836 808.442 537.941 812.566 528.817 813.975C520.78 815.216 512.775 813.527 504.657 813.347C476.484 812.679 447.723 833.695 440.859 861.565" stroke="#3282B8" stroke-opacity="0.64" stroke-width="0.552088" stroke-miterlimit="10"/>
<path d="M1207.25 8.60835C1191.48 73.6763 1169.75 138.782 1137.21 198.613C1125.82 219.64 1112.53 239.252 1097.26 257.488C1078.94 279.234 1056.48 296.52 1033.29 313.133C1017.45 324.484 1001.28 335.52 985.844 347.45C955.365 371.005 927.776 398.339 904.233 427.786C890.467 445.005 878.155 462.98 867.39 481.438C859.81 494.438 852.35 508.383 844.546 522.374C833.495 542.043 821.654 561.772 807.66 579.694C802.671 586.124 797.413 592.31 791.82 598.113C768.551 622.15 729.544 629.942 696.998 639.869C688.295 642.522 680.051 645.325 672.66 648.621C642.42 662.101 615.657 683.323 594.734 709.568C591.131 714.081 587.696 718.749 584.429 723.554C572.777 740.693 563.207 759.607 555.697 779.476C551.246 791.255 548.913 804.638 542.06 814.148C537.835 820.015 531.907 824.287 522.841 825.964C514.798 827.454 506.763 826.135 498.597 826.238C470.282 826.537 441.214 847.62 433.725 875.707" stroke="#3282B8" stroke-opacity="0.64" stroke-width="0.552088" stroke-miterlimit="10"/>
<path d="M1206.06 11.1467C1191.63 75.8017 1170.61 140.812 1138.29 200.348C1126.69 221.822 1112.94 241.567 1097.58 260.32C1079.29 282.645 1056.76 300.516 1033.45 317.663C1017.52 329.379 1001.2 340.743 985.549 352.905C954.637 376.915 926.31 404.327 901.749 433.46C887.389 450.493 874.408 468.168 862.874 486.214C854.737 498.949 846.686 512.54 838.313 526.166C826.435 545.322 813.772 564.498 799.117 582.213C793.905 588.565 788.45 594.713 782.69 600.52C758.661 624.617 719.781 633.619 687.559 644.82C678.958 647.809 670.83 650.947 663.539 654.558C633.804 669.29 607.738 691.541 587.575 718.653C584.102 723.313 580.799 728.126 577.66 733.072C566.458 750.714 557.278 770.086 549.86 790.313C545.463 802.311 543.027 815.829 536.103 825.579C531.83 831.598 525.867 836.018 516.866 837.963C508.814 839.705 500.752 838.755 492.539 839.141C464.083 840.406 434.708 861.562 426.593 889.857" stroke="#3282B8" stroke-opacity="0.64" stroke-width="0.552088" stroke-miterlimit="10"/>
<path d="M1204.88 13.6808C1191.79 77.925 1171.48 142.839 1139.37 202.077C1127.56 223.997 1113.32 243.854 1097.9 263.147C1079.61 286.023 1057.05 304.509 1033.6 322.187C1017.58 334.272 1001.12 345.96 985.245 358.353C953.902 382.815 924.834 410.303 899.259 439.125C884.304 455.977 870.652 473.345 858.352 490.98C849.657 503.448 841.049 516.711 832.072 529.946C819.41 548.621 805.842 567.173 790.569 584.72C785.119 590.981 779.483 597.102 773.551 602.917C748.76 627.075 710.009 637.282 678.113 649.762C669.616 653.085 661.599 656.562 654.409 660.489C625.175 676.463 599.81 699.753 580.409 727.733C577.069 732.54 573.896 737.496 570.882 742.586C560.133 760.733 551.342 780.563 544.015 801.148C539.672 813.365 537.133 827.024 530.138 837.009C525.818 843.179 519.82 847.749 510.883 849.961C502.822 851.955 494.734 851.374 486.474 852.043C457.878 854.273 428.196 875.5 419.454 904.011" stroke="#3282B8" stroke-opacity="0.64" stroke-width="0.552088" stroke-miterlimit="10"/>
<path d="M1203.69 16.219C1191.94 80.0501 1172.35 144.868 1140.45 203.809C1128.43 226.176 1113.7 246.142 1098.22 265.979C1079.93 289.405 1057.33 308.504 1033.75 326.716C1017.64 339.167 1001.04 351.183 984.948 363.806C953.173 388.722 923.366 416.288 896.771 444.795C881.223 461.462 866.897 478.528 853.834 495.751C844.578 507.953 835.386 520.867 825.837 533.73C812.349 551.9 797.951 569.883 782.023 587.232C776.352 593.41 770.519 599.499 764.419 605.316C738.867 629.535 700.245 640.945 668.67 654.704C660.278 658.361 652.375 662.171 645.285 666.422C616.554 683.637 591.888 707.968 573.247 736.814C570.037 741.768 566.996 746.868 564.108 752.097C553.81 770.747 545.41 791.033 538.175 811.98C533.885 824.416 531.246 838.213 524.177 848.435C519.812 854.756 513.775 859.482 504.902 861.957C496.832 864.207 488.716 863.989 480.411 864.939C451.674 868.136 421.683 889.433 412.319 918.157" stroke="#3282B8" stroke-opacity="0.64" stroke-width="0.552088" stroke-miterlimit="10"/>
<path d="M1202.5 18.7549C1192.09 82.1748 1173.21 146.894 1141.52 205.54C1129.29 228.353 1114.08 248.428 1098.53 268.808C1080.24 292.782 1057.61 312.499 1033.9 331.242C1017.7 344.061 1000.96 356.401 984.642 369.255C952.435 394.625 921.886 422.268 894.278 450.461C878.138 466.946 863.137 483.709 849.307 500.521C839.49 512.459 829.713 525.024 819.593 537.516C805.279 555.179 790.055 572.595 773.472 589.744C767.578 595.841 761.547 601.896 755.277 607.718C728.963 631.999 690.474 644.608 659.222 659.648C650.932 663.637 643.143 667.783 636.152 672.354C607.924 690.805 583.956 716.183 566.078 745.895C562.998 750.996 560.09 756.244 557.329 761.611C547.482 780.764 539.471 801.507 532.328 822.813C528.092 835.468 525.351 849.405 518.21 859.863C513.796 866.333 507.724 871.218 498.915 873.951C490.835 876.458 482.694 876.604 474.342 877.837C445.464 881.996 415.167 903.367 405.174 932.304" stroke="#3282B8" stroke-opacity="0.64" stroke-width="0.552088" stroke-miterlimit="10"/>
<path d="M1201.32 21.2891C1192.24 84.2982 1174.08 148.921 1142.6 207.27C1130.16 230.531 1114.46 250.712 1098.85 271.638C1080.55 296.158 1057.9 316.495 1034.06 335.77C1017.77 348.954 1000.89 361.623 984.346 374.71C951.707 400.534 920.418 428.253 891.794 456.135C875.058 472.436 859.38 488.894 844.791 505.296C834.41 516.968 824.053 529.185 813.361 541.304C798.222 558.462 782.172 575.31 764.93 592.26C758.811 598.276 752.586 604.293 746.148 610.122C719.074 634.462 680.714 648.267 649.783 664.594C641.596 668.915 633.922 673.397 627.031 678.288C599.302 697.969 576.037 724.397 558.923 754.977C555.977 760.225 553.199 765.615 550.562 771.126C541.166 790.783 533.544 811.984 526.495 833.649C522.313 846.524 519.469 860.597 512.256 871.294C507.795 877.916 501.687 882.962 492.944 885.95C484.853 888.716 476.685 889.222 468.288 890.74C439.268 895.866 408.665 917.309 398.049 946.456" stroke="#3282B8" stroke-opacity="0.64" stroke-width="0.552088" stroke-miterlimit="10"/>
<path d="M1200.13 23.8271C1192.4 86.4231 1174.94 150.95 1143.68 209.004C1131.02 232.71 1114.84 252.999 1099.16 274.471C1080.86 299.537 1058.18 320.493 1034.21 340.3C1017.83 353.853 1000.8 366.844 984.042 380.162C950.972 406.438 918.942 434.237 889.302 461.802C871.974 477.92 855.618 494.072 840.269 510.067C829.324 521.472 818.384 533.343 807.12 545.089C791.154 561.74 774.279 578.023 756.379 594.772C750.037 600.707 743.614 606.69 737.007 612.524C709.17 636.926 670.939 651.926 640.334 669.542C632.252 674.193 624.689 679.011 617.899 684.224C590.671 705.13 568.107 732.615 551.753 764.061C548.936 769.455 546.29 774.99 543.782 780.642C534.837 800.802 527.608 822.461 520.649 844.486C516.522 857.578 513.573 871.793 506.289 882.726C501.781 889.499 495.637 894.706 486.956 897.951C478.855 900.979 470.663 901.845 462.217 903.643C433.057 909.734 402.143 931.248 390.902 960.609" stroke="#3282B8" stroke-opacity="0.64" stroke-width="0.552088" stroke-miterlimit="10"/>
<path d="M1198.94 26.3615C1192.55 88.5445 1175.81 152.977 1144.76 210.732C1131.89 234.886 1115.22 255.281 1099.48 277.298C1081.18 302.913 1058.46 324.485 1034.37 344.826C1017.89 358.745 1000.72 372.063 983.742 385.614C950.238 412.345 917.468 440.219 886.812 467.473C868.889 483.408 851.854 499.252 835.748 514.839C824.238 525.977 812.717 537.502 800.882 548.878C784.086 565.022 766.391 580.739 747.835 597.289C741.271 603.142 734.65 609.091 727.875 614.929C699.279 639.391 661.176 655.581 630.893 674.49C622.913 679.473 615.464 684.625 608.775 690.161C582.044 712.288 560.185 740.833 544.592 773.147C541.907 778.69 539.391 784.369 537.011 790.161C528.517 810.824 521.677 832.941 514.812 855.322C510.739 868.633 507.69 882.987 500.332 894.156C495.777 901.082 489.598 906.451 480.981 909.95C472.87 913.241 464.655 914.48 456.16 916.546C426.873 923.665 395.639 945.187 383.77 974.763" stroke="#3282B8" stroke-opacity="0.64" stroke-width="0.552088" stroke-miterlimit="10"/>
<path d="M1197.76 28.8975C1192.7 90.6714 1176.67 155.006 1145.84 212.462C1132.76 237.062 1115.59 257.564 1099.8 280.126C1081.48 306.284 1058.75 328.478 1034.52 349.351C1017.95 363.638 1000.64 377.28 983.437 391.062C949.503 418.246 915.99 446.198 884.321 473.139C865.806 488.89 848.086 504.429 831.226 519.606C819.15 530.475 807.046 541.654 794.643 552.657C777.019 568.292 758.502 583.448 739.286 599.796C732.499 605.571 725.682 611.48 718.737 617.326C689.378 641.85 651.402 659.228 621.445 679.43C613.568 684.741 606.231 690.227 599.644 696.091C573.408 719.436 552.255 749.047 537.424 782.225C534.87 787.913 532.488 793.739 530.232 799.671C522.189 820.838 515.739 843.412 508.968 866.154C504.948 879.684 501.794 894.175 494.367 905.582C489.767 912.658 483.551 918.196 474.997 921.942C466.875 925.5 458.635 927.093 450.091 929.44C420.665 937.524 389.122 959.12 376.629 988.907" stroke="#3282B8" stroke-opacity="0.64" stroke-width="0.552088" stroke-miterlimit="10"/>
<path d="M1196.57 31.4356C1192.85 92.7966 1177.54 157.037 1146.92 214.197C1133.63 239.244 1115.97 259.852 1100.11 282.961C1081.8 309.664 1059.03 332.478 1034.68 353.883C1018.02 368.535 1000.56 382.505 983.14 396.519C948.773 424.157 914.521 452.187 881.836 478.814C862.724 494.382 844.325 509.613 826.707 524.385C814.065 534.985 801.378 545.818 788.404 556.45C769.95 571.578 750.615 586.171 730.74 602.315C723.73 608.008 716.715 613.882 709.605 619.735C679.486 644.319 641.636 662.883 612.008 684.383C604.234 690.021 597.009 695.843 590.525 702.031C564.782 726.59 544.338 757.267 530.269 791.315C527.847 797.151 525.595 803.12 523.465 809.194C515.875 830.866 509.814 853.894 503.134 876.998C499.168 890.747 495.914 905.377 488.412 917.021C483.764 924.246 477.512 929.955 469.022 933.951C460.895 937.776 452.625 939.723 444.035 942.353C414.471 951.403 382.617 973.067 369.497 1003.07" stroke="#3282B8" stroke-opacity="0.64" stroke-width="0.552088" stroke-miterlimit="10"/>
<path d="M1195.38 33.9698C1193.01 94.9178 1178.3 159.001 1148 215.925C1134.44 241.391 1116.34 262.131 1100.43 285.787C1082.1 313.033 1059.31 336.469 1034.83 358.407C1018.08 373.428 1000.49 387.724 982.84 401.967C948.042 430.058 913.05 458.163 879.347 484.478C859.643 499.863 840.558 514.781 822.186 529.149C808.978 539.479 795.708 549.966 782.169 560.23C762.884 574.85 742.732 588.878 722.195 604.823C714.964 610.436 707.75 616.273 700.47 622.132C669.588 646.777 631.864 666.524 602.563 689.323C594.892 695.289 587.78 701.445 581.397 707.959C556.145 733.731 536.412 765.477 523.105 800.389C520.813 806.373 518.692 812.486 516.691 818.701C509.552 840.876 503.88 864.362 497.292 887.824C493.38 901.792 490.023 916.562 482.45 928.442C477.754 935.818 471.47 941.696 463.042 945.939C454.906 950.034 446.61 952.332 437.974 955.244C408.273 965.261 376.107 986.996 362.365 1017.21" stroke="#3282B8" stroke-opacity="0.64" stroke-width="0.552088" stroke-miterlimit="10"/>
<path d="M1194.19 36.5061C1193.16 97.0432 1179.16 161.028 1149.07 217.657C1135.3 243.569 1116.71 264.412 1100.74 288.617C1082.41 316.406 1059.59 340.464 1034.98 362.934C1018.14 378.32 1000.4 392.942 982.535 407.42C947.302 435.962 911.574 464.148 876.854 490.149C856.554 505.351 836.784 519.959 817.662 533.922C803.882 543.981 790.035 554.123 775.926 564.017C755.808 578.127 734.841 591.597 713.642 607.337C706.188 612.872 698.779 618.672 691.329 624.535C659.687 649.24 622.087 670.171 593.113 694.268C585.543 700.565 578.544 707.054 572.263 713.894C547.496 740.875 528.48 773.693 515.935 809.473C513.774 815.602 511.786 821.86 509.91 828.217C503.222 850.896 497.941 874.841 491.446 898.661C487.585 912.846 484.127 927.755 476.483 939.873C471.74 947.402 465.422 953.453 457.057 957.939C448.912 962.307 440.59 964.95 431.905 968.145C402.064 979.127 369.592 1000.93 355.22 1031.36" stroke="#3282B8" stroke-opacity="0.64" stroke-width="0.552088" stroke-miterlimit="10"/>
<path d="M1193.01 39.0423C1193.31 99.1681 1180.03 163.057 1150.15 219.387C1136.17 245.745 1117.09 266.693 1101.06 291.446C1082.72 319.779 1059.88 344.46 1035.14 367.46C1018.21 383.215 1000.33 398.162 982.239 412.868C946.575 441.864 910.104 470.127 874.368 495.816C853.477 510.835 833.021 525.131 813.145 538.691C798.798 548.479 784.368 558.275 769.69 567.8C748.741 581.397 726.958 594.312 705.098 609.846C697.424 615.302 689.815 621.065 682.198 626.932C649.794 651.699 612.316 673.808 583.672 699.209C576.204 705.831 569.317 712.655 563.141 719.825C538.859 748.012 520.558 781.907 508.776 818.554C506.747 824.831 504.89 831.234 503.142 837.731C496.904 860.912 492.015 885.313 485.611 909.495C481.804 923.899 478.246 938.946 470.527 951.302C465.738 958.983 459.387 965.208 451.081 969.938C442.93 974.577 434.579 977.569 425.847 981.048C395.867 992.995 363.083 1014.87 348.09 1045.51" stroke="#3282B8" stroke-opacity="0.64" stroke-width="0.552088" stroke-miterlimit="10"/>
<path d="M1191.82 41.5783C1193.46 101.291 1181.01 165.145 1151.23 221.118C1137.09 247.953 1117.46 268.976 1101.38 294.275C1083.02 323.151 1060.16 348.453 1035.29 371.986C1018.27 388.106 1000.24 403.378 981.935 418.32C945.838 447.77 908.626 476.109 871.876 501.483C850.388 516.319 829.248 530.301 808.619 543.461C793.701 552.975 778.692 562.428 763.449 571.585C741.668 584.672 719.069 597.028 696.547 612.359C688.652 617.734 680.844 623.462 673.057 629.334C639.893 654.161 602.535 677.45 574.224 704.156C566.858 711.107 560.08 718.265 554.011 725.759C530.211 755.152 512.63 790.123 501.608 827.636C499.711 834.058 497.984 840.608 496.361 847.246C490.575 870.931 486.075 895.79 479.763 920.33C476.009 934.953 472.348 950.14 464.561 962.73C459.724 970.558 453.341 976.962 445.095 981.931C436.938 986.845 428.55 990.165 419.778 993.946C389.632 1006.8 356.568 1028.81 340.946 1059.66" stroke="#3282B8" stroke-opacity="0.64" stroke-width="0.552088" stroke-miterlimit="10"/>
<path d="M1190.63 44.1145C1193.62 103.416 1181.87 167.174 1152.31 222.85C1137.96 250.129 1117.84 271.258 1101.7 297.107C1083.33 326.525 1060.45 352.448 1035.45 376.517C1018.33 393.005 1000.17 408.603 981.636 423.775C945.108 453.677 907.156 482.096 869.388 507.157C847.309 521.809 825.481 535.477 804.1 548.236C788.613 557.477 773.023 566.582 757.211 575.374C734.598 587.948 711.184 599.749 688.002 614.874C679.886 620.17 671.879 625.859 663.924 631.737C629.997 656.626 592.756 681.09 564.783 709.101C557.516 716.379 550.851 723.868 544.886 731.693C521.564 762.291 504.708 798.337 494.448 836.719C492.682 843.29 491.087 849.981 489.589 856.76C484.254 880.948 480.145 906.262 473.924 931.165C470.225 946.007 466.461 961.33 458.602 974.159C453.718 982.139 447.305 988.72 439.118 993.928C430.958 999.117 422.536 1002.78 413.717 1006.84C383.431 1020.66 350.058 1042.74 333.81 1073.81" stroke="#3282B8" stroke-opacity="0.64" stroke-width="0.552088" stroke-miterlimit="10"/>
<path d="M1189.45 46.651C1193.77 105.54 1182.74 169.201 1153.39 224.58C1138.83 252.308 1118.21 273.537 1102.02 299.935C1083.64 329.894 1060.73 356.442 1035.6 381.041C1018.4 397.896 1000.09 413.82 981.34 429.224C944.379 459.58 905.686 488.075 866.905 512.823C844.23 527.292 821.718 540.642 799.585 553.003C783.528 561.97 767.359 570.733 750.98 579.154C727.531 591.214 703.307 602.463 679.462 617.384C671.123 622.602 662.919 628.253 654.795 634.137C620.106 659.088 582.981 684.727 555.345 714.044C548.178 721.645 541.622 729.471 535.764 737.624C512.916 769.423 496.788 806.55 487.29 845.796C485.653 852.514 484.191 859.349 482.821 866.269C477.937 890.96 474.218 916.734 468.09 941.991C464.444 957.052 460.578 972.516 452.647 985.58C447.716 993.712 441.277 1000.47 433.144 1005.92C424.982 1011.39 416.526 1015.39 407.661 1019.74C377.231 1034.52 343.553 1056.67 326.682 1087.95" stroke="#3282B8" stroke-opacity="0.64" stroke-width="0.552088" stroke-miterlimit="10"/>
<path d="M1188.26 49.1868C1193.92 107.663 1183.61 171.228 1154.46 226.312C1139.69 254.485 1118.57 275.82 1102.33 302.768C1083.94 333.268 1061.01 360.441 1035.75 385.571C1018.45 402.794 1000.01 419.042 981.033 434.677C943.641 465.487 904.208 494.06 864.408 518.493C841.141 532.779 817.939 545.813 795.057 557.775C778.431 566.465 761.678 574.885 744.734 582.943C720.453 594.489 695.415 605.185 670.909 619.898C662.349 625.036 653.945 630.651 645.654 636.539C610.204 661.55 573.194 688.366 545.896 718.991C538.828 726.92 532.384 735.077 526.632 743.56C504.256 776.561 488.856 814.769 480.121 854.882C478.618 861.747 477.285 868.729 476.042 875.787C471.61 900.983 468.28 927.213 462.245 952.83C458.653 968.111 454.686 983.712 446.683 997.016C441.705 1005.3 435.238 1012.24 427.162 1017.92C418.997 1023.67 410.507 1028.02 401.597 1032.65C371.027 1048.39 337.041 1070.62 319.542 1102.11" stroke="#3282B8" stroke-opacity="0.64" stroke-width="0.552088" stroke-miterlimit="10"/>
<path d="M1187.08 51.7209C1194.08 109.788 1184.47 173.257 1155.54 228.04C1140.56 256.661 1118.95 278.097 1102.65 305.594C1084.24 336.637 1061.3 364.432 1035.91 390.093C1018.52 407.683 999.93 424.257 980.735 440.124C942.91 471.387 902.736 500.037 861.923 524.157C838.06 538.26 814.175 550.975 790.54 562.54C773.344 570.955 756.012 579.029 738.499 586.722C713.385 597.753 687.534 607.899 662.364 622.406C653.583 627.468 644.982 633.04 636.519 638.936C600.307 664.009 563.41 692 536.451 723.931C529.483 732.184 523.15 740.677 517.508 749.489C495.602 783.695 480.934 822.979 472.959 863.959C471.586 870.97 470.387 878.095 469.268 885.298C465.285 910.999 462.348 937.683 456.405 963.662C452.868 979.16 448.795 994.901 440.722 1008.44C435.697 1016.88 429.203 1024 421.181 1029.92C413.016 1035.94 404.491 1040.63 395.532 1045.54C364.821 1062.25 330.529 1084.55 312.405 1116.26" stroke="#3282B8" stroke-opacity="0.64" stroke-width="0.552088" stroke-miterlimit="10"/>
<path d="M1185.89 54.2592C1194.23 111.913 1185.34 175.286 1156.62 229.775C1141.42 258.842 1119.32 280.38 1102.96 308.429C1084.55 340.012 1061.58 368.433 1036.07 394.628C1018.58 412.584 999.853 429.486 980.436 445.582C942.18 477.299 901.264 506.026 859.435 529.834C834.98 543.754 810.405 556.149 786.019 567.32C768.254 575.459 750.341 583.189 732.261 590.515C706.315 601.029 679.648 610.627 653.816 624.927C644.814 629.909 636.013 635.445 627.383 641.345C590.411 666.477 553.623 695.644 527.006 728.883C520.137 737.464 513.912 746.291 508.379 755.43C486.94 790.836 473.007 831.201 465.794 873.049C464.552 880.209 463.483 887.477 462.492 894.82C458.961 921.025 456.412 948.166 450.562 974.504C447.079 990.22 442.905 1006.1 434.759 1019.88C429.687 1028.46 423.168 1035.76 415.197 1041.92C407.035 1048.23 398.471 1053.25 389.468 1058.45C358.616 1076.13 324.017 1098.5 305.266 1130.41" stroke="#3282B8" stroke-opacity="0.64" stroke-width="0.552088" stroke-miterlimit="10"/>
<path d="M1184.7 56.7949C1194.38 114.036 1186.21 177.314 1157.7 231.505C1142.29 261.018 1119.69 282.658 1103.28 311.257C1084.85 343.38 1061.87 372.425 1036.22 399.152C1018.64 417.474 999.77 434.7 980.133 451.032C941.444 483.203 899.791 512.006 856.944 535.5C831.893 549.236 806.633 561.311 781.496 572.087C763.161 579.947 744.667 587.336 726.021 594.298C699.242 604.296 671.764 613.346 645.269 627.435C636.045 632.342 627.047 637.84 618.248 643.746C580.514 668.94 543.835 699.277 517.564 733.826C510.792 742.731 504.677 751.892 499.252 761.361C478.278 797.968 465.083 839.413 458.634 882.128C457.524 889.433 456.584 896.847 455.722 904.331C452.641 931.039 450.482 958.638 444.725 985.336C441.296 1001.27 437.019 1017.29 428.801 1031.3C423.683 1040.04 417.141 1047.52 409.222 1053.92C401.062 1060.5 392.46 1065.87 383.409 1071.35C352.417 1089.99 317.507 1112.43 298.134 1144.56" stroke="#3282B8" stroke-opacity="0.64" stroke-width="0.552088" stroke-miterlimit="10"/>
<path d="M1183.52 59.3295C1194.54 116.159 1187.07 179.34 1158.78 233.235C1143.16 263.194 1120 284.904 1103.59 314.084C1085.09 346.713 1062.15 376.416 1036.37 403.676C1018.7 422.367 999.69 439.917 979.831 456.479C940.711 489.102 898.316 517.983 854.454 541.165C828.811 554.718 802.863 566.471 776.974 576.854C758.069 584.435 738.995 591.482 719.783 598.078C692.172 607.558 663.907 616.115 636.72 629.943C627.284 634.788 618.079 640.229 609.112 646.141C570.617 671.395 534.045 702.908 508.12 738.766C501.445 747.997 495.442 757.492 490.125 767.29C469.615 805.099 457.155 847.625 451.468 891.204C450.488 898.656 449.684 906.216 448.944 913.842C446.314 941.053 444.548 969.109 438.881 996.167C435.505 1012.32 431.126 1028.48 422.837 1042.73C417.671 1051.62 411.106 1059.28 403.239 1065.91C395.081 1072.78 386.443 1078.49 377.344 1084.24C346.211 1103.85 310.996 1126.36 290.996 1158.71" stroke="#3282B8" stroke-opacity="0.64" stroke-width="0.552088" stroke-miterlimit="10"/>
<path d="M1182.33 61.8678C1194.69 118.286 1187.94 181.369 1159.86 234.967C1144.03 265.374 1120.37 287.189 1103.91 316.916C1085.4 350.088 1062.43 380.413 1036.53 408.204C1018.77 427.262 999.614 445.139 979.532 461.934C939.979 495.011 896.846 523.97 851.968 546.837C825.729 560.207 799.099 571.638 772.457 581.627C752.981 588.93 733.317 595.598 713.547 601.865C685.089 610.778 656.02 618.834 628.177 632.456C618.519 637.221 609.115 642.626 599.979 648.544C560.722 673.86 524.257 706.546 498.677 743.712C492.1 753.269 486.205 763.098 481.002 773.225C460.953 812.236 449.235 855.842 444.31 900.289C443.46 907.89 442.787 915.593 442.175 923.359C439.996 951.073 438.619 979.588 433.044 1007C429.722 1023.38 425.243 1039.67 416.88 1054.16C411.666 1063.2 405.079 1071.05 397.26 1077.91C389.108 1085.06 380.427 1091.1 371.283 1097.15C340.01 1117.72 304.484 1140.3 283.858 1172.86" stroke="#3282B8" stroke-opacity="0.64" stroke-width="0.552088" stroke-miterlimit="10"/>
<path d="M1181.14 64.4018C1194.84 120.408 1188.81 183.396 1160.94 236.697C1144.89 267.55 1120.75 289.471 1104.23 319.744C1085.71 353.461 1062.72 384.407 1036.68 412.731C1018.84 432.155 999.537 450.359 979.234 467.384C939.248 500.916 895.374 529.95 849.481 552.506C822.65 565.693 795.33 576.8 767.936 586.399C747.892 593.422 727.648 599.751 707.309 605.654C678.018 614.054 648.134 621.555 619.628 634.973C609.748 639.66 600.146 645.027 590.843 650.949C550.826 676.325 514.462 710.184 489.232 748.66C482.752 758.542 476.965 768.706 471.873 779.161C452.283 819.375 441.308 864.059 437.143 909.373C436.425 917.119 435.881 924.968 435.398 932.875C433.67 961.093 432.683 990.065 427.203 1017.84C423.935 1034.43 419.353 1050.87 410.918 1065.59C405.658 1074.78 399.049 1082.81 391.281 1089.91C383.136 1097.34 374.412 1103.72 365.219 1110.05C333.805 1131.59 297.974 1154.24 276.723 1187.01" stroke="#3282B8" stroke-opacity="0.64" stroke-width="0.552088" stroke-miterlimit="10"/>
<path d="M1179.96 66.9378C1194.99 122.533 1189.67 185.422 1162.01 238.428C1145.76 269.729 1121.12 291.753 1104.55 322.575C1086.01 356.836 1063 388.404 1036.84 417.259C1018.9 437.052 999.456 455.58 978.933 472.836C938.516 506.821 893.9 535.933 846.992 558.173C819.565 571.177 791.562 581.962 763.416 591.168C742.801 597.912 721.981 603.903 701.071 609.436C670.953 617.322 640.247 624.27 611.085 637.482C600.984 642.09 591.182 647.42 581.71 653.348C540.93 678.786 504.672 713.819 479.791 753.601C473.407 763.81 467.731 774.306 462.749 785.091C443.615 826.506 433.387 872.27 429.983 918.452C429.397 926.346 428.985 934.337 428.628 942.386C427.353 971.109 426.754 1000.53 421.367 1028.67C418.152 1045.48 413.468 1062.05 404.961 1077.02C399.654 1086.36 393.028 1094.58 385.306 1101.9C377.167 1109.62 368.4 1116.34 359.162 1122.95C327.606 1145.45 291.468 1168.18 269.59 1201.16" stroke="#3282B8" stroke-opacity="0.64" stroke-width="0.552088" stroke-miterlimit="10"/>
<path d="M1178.77 69.4759C1195.15 124.658 1190.54 187.453 1163.09 240.16C1146.62 271.907 1121.49 294.037 1104.86 325.405C1086.32 360.209 1063.28 392.399 1036.99 421.787C1018.96 441.946 999.375 460.801 978.63 478.29C937.778 512.727 892.425 541.919 844.5 563.847C816.481 576.667 787.777 587.082 758.895 595.944C737.702 602.373 716.312 608.061 694.831 613.226C663.883 620.601 632.358 626.99 602.535 640.001C592.211 644.53 582.214 649.821 572.572 655.755C531.033 681.252 494.801 717.417 470.346 758.553C464.038 769.076 458.491 779.918 453.62 791.031C434.943 833.651 425.458 880.493 422.818 927.538C422.362 935.579 422.083 943.717 421.851 951.906C421.026 981.132 420.817 1011.02 415.522 1039.51C412.359 1056.54 407.574 1073.25 398.995 1088.45C393.641 1097.94 386.996 1106.34 379.32 1113.91C371.193 1121.91 362.379 1128.96 353.094 1135.85C321.398 1159.33 284.952 1182.12 262.45 1215.32" stroke="#3282B8" stroke-opacity="0.64" stroke-width="0.552088" stroke-miterlimit="10"/>
<path d="M1177.58 72.0104C1195.3 126.781 1191.4 189.48 1164.17 241.89C1147.49 274.083 1121.87 296.32 1105.18 328.234C1086.63 363.582 1063.56 396.392 1037.14 426.313C1019.02 446.841 999.297 466.02 978.328 483.741C937.045 518.63 890.95 547.9 842.009 569.516C813.397 582.151 784.012 592.252 754.372 600.715C732.613 606.87 710.642 612.213 688.594 617.012C656.818 623.874 624.471 629.709 593.988 642.514C583.442 646.962 573.246 652.217 563.438 658.156C521.135 683.715 485.02 721.063 460.902 763.497C454.695 774.349 449.231 785.514 444.494 796.962C426.183 840.75 417.534 888.706 415.656 936.619C415.333 944.807 415.183 953.089 415.077 961.417C414.703 991.147 414.887 1021.49 409.682 1050.34C406.572 1067.59 401.686 1084.44 393.035 1099.88C387.634 1109.52 380.971 1118.11 373.34 1125.9C365.222 1134.19 356.362 1141.57 347.032 1148.75C315.195 1173.19 278.441 1196.05 255.314 1229.46" stroke="#3282B8" stroke-opacity="0.64" stroke-width="0.552088" stroke-miterlimit="10"/>
<path d="M1176.4 74.5465C1195.45 128.906 1192.27 191.507 1165.25 243.62C1148.36 276.259 1122.24 298.601 1105.49 331.064C1086.93 366.957 1063.85 400.386 1037.29 430.839C1019.08 451.732 999.211 471.238 978.026 489.191C936.31 524.535 889.474 553.88 839.518 575.181C810.312 587.635 780.245 597.421 749.85 605.482C727.525 611.364 704.971 616.365 682.353 620.793C649.747 627.144 616.582 632.422 585.439 645.021C574.67 649.391 564.277 654.608 554.299 660.553C511.237 686.172 475.237 724.707 451.454 768.437C445.346 779.617 439.992 791.118 435.364 802.893C417.534 847.898 409.605 896.915 408.488 945.697C408.295 954.032 408.279 962.457 408.299 970.928C408.377 1001.16 408.95 1031.96 403.838 1061.17C400.782 1078.64 395.792 1095.63 387.07 1111.31C381.622 1121.1 374.944 1129.87 367.357 1137.89C359.251 1146.46 350.344 1154.19 340.967 1161.65C308.989 1187.05 271.929 1209.99 248.175 1243.61" stroke="#3282B8" stroke-opacity="0.64" stroke-width="0.552088" stroke-miterlimit="10"/>
<path d="M1175.21 77.0826C1195.61 131.029 1193.14 193.536 1166.33 245.353C1149.23 278.441 1122.61 300.886 1105.81 333.895C1087.24 370.332 1064.13 404.383 1037.45 435.37C1019.14 456.63 999.135 476.461 977.727 494.645C935.58 530.442 888.006 559.865 837.031 580.854C807.23 593.123 776.481 602.597 745.329 610.258C722.437 615.866 699.302 620.522 676.113 624.584C642.679 630.421 608.691 635.144 576.889 647.539C565.899 651.829 555.31 657.011 545.161 662.959C501.337 688.64 465.454 728.36 442.008 773.388C436.002 784.898 430.76 796.734 426.235 808.833C408.883 855.057 401.678 905.137 401.323 954.787C401.259 963.268 401.375 971.839 401.523 980.45C402.052 1011.19 403.014 1042.44 397.994 1072.02C394.992 1089.7 389.901 1106.83 381.106 1122.74C375.611 1132.69 368.934 1141.65 361.373 1149.9C353.294 1158.77 344.323 1166.81 334.901 1174.55C302.781 1200.92 265.414 1223.93 241.035 1257.77" stroke="#3282B8" stroke-opacity="0.64" stroke-width="0.552088" stroke-miterlimit="10"/>
<path d="M1174.02 79.6188C1195.76 133.153 1194 195.563 1167.41 247.083C1150.09 280.617 1122.99 303.166 1106.13 336.725C1087.55 373.705 1064.42 408.378 1037.6 439.896C982.992 504.096 912.942 555.343 834.542 586.522C781.804 607.494 725.957 619.648 669.876 628.365C635.612 633.691 600.806 637.857 568.345 650.047C508.668 672.458 461.026 721.286 432.566 778.327C404.107 835.368 393.647 900.117 394.163 963.862C394.628 1021.71 402.99 1083.46 375.15 1134.16C343.309 1192.16 273.064 1218.58 233.903 1271.91" stroke="#3282B8" stroke-opacity="0.64" stroke-width="0.552088" stroke-miterlimit="10"/>
<path d="M1294.86 431.458C1251.36 376.799 1188.19 338.149 1119.72 324.316C1100.24 320.381 1079.59 318.471 1060.84 325.034C1006.64 344 988.605 413.333 968.527 460.683C944.295 517.823 921.425 575.657 892.577 630.693C876.382 661.591 854.53 694.395 820.378 701.507C785.793 708.707 752.743 686.94 721.961 669.607C686.093 649.409 646.683 633.895 605.575 631.751C564.468 629.607 521.415 642.133 492.471 671.404C469.806 694.327 457.381 725.351 448.096 756.222C423.702 837.335 417.209 923.779 429.209 1007.63" stroke="#3282B8" stroke-opacity="0.64" stroke-width="0.552088" stroke-miterlimit="10"/>
<path d="M1294.31 428.009C1255.87 379.701 1200.94 346.474 1138.39 330.505C1132.58 329.021 1126.74 327.666 1120.86 326.512C1101.53 322.727 1081.09 320.881 1062.51 327.236C1008.74 345.599 989.993 412.652 969.419 459.292C951.179 500.641 933.886 542.705 914.19 584.062C907.375 598.431 900.303 612.682 892.853 626.758C876.69 657.289 855.086 689.689 821.583 697.235C787.66 704.875 755.228 684.486 724.979 668.377C689.73 649.61 651.037 635.36 610.644 634.005C596.58 633.534 582.282 634.779 568.401 637.824C542.424 643.517 517.903 655.506 499.145 674.329C476.612 696.938 463.937 727.317 454.264 757.439C434.664 818.401 425.228 881.985 426.412 945.448C426.763 964.385 428.06 983.307 430.324 1002.14" stroke="#3282B8" stroke-opacity="0.64" stroke-width="0.552088" stroke-miterlimit="10"/>
<path d="M1293.77 424.565C1256.61 377.866 1202.89 347.968 1139.37 332.544C1133.61 331.146 1127.82 329.823 1121.99 328.714C1102.81 325.084 1082.59 323.297 1064.17 329.444C1010.84 347.204 991.384 411.975 970.313 457.906C951.804 498.254 934.419 539.651 914.478 580.671C907.642 594.848 900.565 608.922 893.13 622.829C877.001 652.996 855.641 684.992 822.791 692.97C789.527 701.046 757.713 682.036 728.001 667.152C693.373 649.815 655.392 636.831 615.718 636.266C601.904 636.071 587.853 637.53 574.202 640.723C548.658 646.682 524.473 658.696 505.826 677.258C483.427 699.556 470.503 729.287 460.437 758.658C440.023 818.11 429.326 879.646 428.972 941.394C428.865 959.819 429.678 978.258 431.444 996.661" stroke="#3282B8" stroke-opacity="0.64" stroke-width="0.552088" stroke-miterlimit="10"/>
<path d="M1293.23 421.116C1257.35 376.03 1204.85 349.449 1140.36 334.58C1134.64 333.26 1128.91 331.973 1123.14 330.911C1104.1 327.431 1084.09 325.711 1065.85 331.648C1012.95 348.804 992.789 411.288 971.21 456.515C952.439 495.858 934.862 536.542 914.773 577.274C907.883 591.246 900.834 605.156 893.412 618.896C877.315 648.696 856.2 680.291 824.005 688.7C791.401 697.213 760.207 679.582 731.027 665.924C697.018 650.018 659.754 638.297 620.797 638.52C607.23 638.603 593.43 640.274 580.006 643.612C554.892 649.839 531.048 661.875 512.51 680.182C490.245 702.169 477.071 731.251 466.613 759.872C445.384 817.818 433.426 877.301 431.536 937.336C430.972 955.25 431.302 973.204 432.573 991.176" stroke="#3282B8" stroke-opacity="0.64" stroke-width="0.552088" stroke-miterlimit="10"/>
<path d="M1292.68 417.672C1258.09 374.195 1206.82 350.92 1141.34 336.621C1135.66 335.382 1129.99 334.13 1124.27 333.114C1105.38 329.789 1085.59 328.128 1067.52 333.856C1015.05 350.409 994.195 410.608 972.102 455.131C953.076 493.471 935.362 533.474 915.058 573.884C908.138 587.661 901.095 601.395 893.687 614.969C877.624 644.404 856.757 675.596 825.21 684.436C793.267 693.388 762.692 677.136 734.044 664.702C700.654 650.227 664.105 639.768 625.865 640.782C612.546 641.14 598.997 643.025 585.799 646.51C561.119 653.005 537.614 665.065 519.181 683.112C497.047 704.787 483.624 733.222 472.777 761.093C450.733 817.528 437.513 874.963 434.084 933.285C433.06 950.689 432.908 968.158 433.681 985.695" stroke="#3282B8" stroke-opacity="0.64" stroke-width="0.552088" stroke-miterlimit="10"/>
<path d="M1292.14 414.225C1258.83 372.358 1208.79 352.381 1142.32 338.658C1136.69 337.496 1131.07 336.285 1125.41 335.313C1106.67 332.138 1087.09 330.543 1069.19 336.062C1017.15 352.012 995.612 409.923 972.997 453.746C953.727 491.085 935.872 530.404 915.351 570.494C908.4 584.075 901.361 597.636 893.969 611.04C877.938 640.109 857.316 670.899 826.421 680.172C795.138 689.56 765.185 674.687 737.069 663.479C704.298 650.432 668.465 641.24 630.941 643.045C617.871 643.68 604.571 645.779 591.601 649.408C567.353 656.17 544.184 668.255 525.864 686.044C503.864 707.408 490.193 735.196 478.954 762.317C456.098 817.244 441.614 872.628 436.65 929.238C435.168 946.13 434.531 963.115 434.807 980.22" stroke="#3282B8" stroke-opacity="0.64" stroke-width="0.552088" stroke-miterlimit="10"/>
<path d="M1291.6 410.777C1259.57 370.52 1210.77 353.823 1143.31 340.691C1137.72 339.605 1132.15 338.433 1126.55 337.509C1107.95 334.486 1088.59 332.952 1070.86 338.263C1019.25 353.611 997.035 409.229 973.888 452.351C954.383 488.689 936.376 527.326 915.635 567.094C908.654 580.48 901.62 593.867 894.241 607.101C878.244 635.805 857.868 666.19 827.623 675.896C797 685.721 767.668 672.229 740.083 662.245C707.931 650.63 672.815 642.701 636.007 645.295C623.186 646.206 610.136 648.517 597.393 652.296C573.576 659.325 550.747 671.432 532.534 688.964C510.668 710.017 496.746 737.158 485.116 763.528C461.446 816.944 445.701 870.28 439.199 925.174C437.257 941.556 436.138 958.057 435.919 974.726" stroke="#3282B8" stroke-opacity="0.64" stroke-width="0.552088" stroke-miterlimit="10"/>
<path d="M1291.06 407.332C1260.3 368.687 1212.76 355.26 1144.29 342.732C1138.75 341.719 1133.23 340.589 1127.68 339.711C1109.23 336.84 1090.08 335.37 1072.53 340.473C1021.35 355.216 998.47 408.548 974.784 450.968C955.052 486.305 936.891 524.258 915.927 563.707C908.917 576.9 901.883 590.109 894.522 603.176C878.558 631.513 858.427 661.497 828.834 671.635C798.872 681.899 770.157 669.783 743.109 661.025C711.578 650.839 677.176 644.175 641.087 647.559C628.514 648.744 615.713 651.271 603.198 655.195C579.814 662.491 557.325 674.623 539.219 691.898C517.485 712.637 503.315 739.132 491.291 764.754C466.809 816.662 449.799 867.947 441.76 921.13C439.36 937 437.757 953.018 437.04 969.253" stroke="#3282B8" stroke-opacity="0.64" stroke-width="0.552088" stroke-miterlimit="10"/>
<path d="M1290.51 403.884C1261.04 366.849 1214.76 356.676 1145.27 344.767C1139.78 343.826 1134.32 342.741 1128.82 341.909C1110.52 339.191 1091.59 337.784 1074.2 342.678C1023.46 356.818 999.916 407.856 975.678 449.578C955.731 483.915 937.402 521.186 916.217 560.31C909.178 573.306 902.147 586.343 894.799 599.243C878.869 627.215 858.984 656.794 830.044 667.368C800.741 678.069 772.646 667.333 746.131 659.8C715.218 651.045 681.531 645.646 646.159 649.817C633.835 651.279 621.285 654.019 608.995 658.089C586.045 665.653 563.893 677.807 545.896 694.826C524.297 715.255 509.876 741.101 497.462 765.975C472.165 816.373 453.895 865.609 444.318 917.078C441.458 932.438 439.371 947.969 438.16 963.774" stroke="#3282B8" stroke-opacity="0.64" stroke-width="0.552088" stroke-miterlimit="10"/>
<path d="M1289.97 400.437C1261.78 365.012 1216.76 358.08 1146.26 346.804C1140.81 345.935 1135.4 344.894 1129.96 344.107C1111.8 341.541 1093.08 340.198 1075.87 344.88C1025.56 358.419 1001.37 407.167 976.572 448.189C956.42 481.529 937.919 518.116 916.507 556.916C909.442 569.722 902.411 582.581 895.079 595.312C879.181 622.917 859.541 652.094 831.253 663.101C802.61 674.239 775.135 664.884 749.153 658.574C718.859 651.251 685.888 647.115 651.233 652.078C639.159 653.817 626.856 656.77 614.795 660.985C592.275 668.818 570.463 680.997 552.575 697.753C531.109 717.869 516.438 743.07 503.634 767.192C477.524 816.082 457.99 863.268 446.878 913.023C443.56 927.872 440.989 942.919 439.283 958.29" stroke="#3282B8" stroke-opacity="0.64" stroke-width="0.552088" stroke-miterlimit="10"/>
<path d="M1289.43 396.991C1262.52 363.176 1218.77 359.472 1147.24 348.842C1141.84 348.039 1136.48 347.045 1131.1 346.305C1113.09 343.892 1094.58 342.61 1077.54 347.087C1027.66 360.022 1002.83 406.479 977.461 446.801C957.112 479.147 938.433 515.046 916.79 553.523C909.698 566.134 902.668 578.818 895.351 591.38C879.487 618.621 860.093 647.393 832.455 658.833C804.472 670.408 777.617 662.433 752.167 657.349C722.495 651.455 690.238 648.584 656.298 654.336C644.471 656.349 632.417 659.516 620.585 663.879C598.498 671.978 577.024 684.18 559.245 700.682C537.91 720.488 522.992 745.038 509.796 768.411C482.872 815.79 462.075 860.925 449.425 908.97C445.649 923.307 442.593 937.871 440.39 952.808" stroke="#3282B8" stroke-opacity="0.64" stroke-width="0.552088" stroke-miterlimit="10"/>
<path d="M1288.88 393.544C1263.26 361.339 1220.78 360.846 1148.22 350.878C1142.87 350.144 1137.57 349.2 1132.23 348.503C1114.37 346.242 1096.08 345.023 1079.21 349.289C1029.76 361.621 1004.3 405.792 978.356 445.411C957.822 476.765 938.952 511.974 917.082 550.127C909.965 562.546 902.934 575.054 895.632 587.447C879.801 614.322 860.654 642.694 833.669 654.562C806.347 666.576 780.111 659.976 755.195 656.122C726.14 651.657 694.602 650.052 661.379 656.591C649.801 658.881 637.997 662.26 626.392 666.772C604.737 675.137 583.602 687.363 565.93 703.607C544.73 723.102 529.559 747.006 515.975 769.629C488.239 815.5 466.178 858.585 451.991 904.915C447.755 918.741 444.217 932.821 441.518 947.322" stroke="#3282B8" stroke-opacity="0.64" stroke-width="0.552088" stroke-miterlimit="10"/>
<path d="M1288.34 390.1C1264 359.506 1222.79 362.205 1149.21 352.918C1143.91 352.25 1138.65 351.344 1133.37 350.706C1115.66 348.562 1097.58 347.442 1080.88 351.498C1031.87 363.225 1005.79 405.112 979.254 444.026C958.545 474.394 939.478 508.911 917.374 546.737C910.232 558.963 903.2 571.29 895.91 583.519C880.112 610.028 861.212 637.995 834.876 650.298C808.214 662.748 782.598 657.529 758.217 654.897C729.781 651.864 698.959 651.522 666.453 658.853C655.125 661.419 643.569 665.012 632.192 669.669C610.969 678.304 590.172 690.553 572.611 706.537C551.543 725.719 536.125 748.976 522.149 770.849C493.598 815.21 470.276 856.246 454.553 900.863C449.859 914.178 445.836 927.774 442.642 941.844" stroke="#3282B8" stroke-opacity="0.64" stroke-width="0.552088" stroke-miterlimit="10"/>
<path d="M1287.8 386.651C1264.74 357.668 1224.81 363.543 1150.19 354.955C1144.94 354.35 1139.73 353.498 1134.51 352.904C1116.95 350.911 1099.08 349.856 1082.55 353.703C1033.96 364.827 1007.29 404.433 980.144 442.636C959.271 472.02 939.997 505.843 917.663 543.341C910.497 555.373 903.462 567.526 896.188 579.585C880.422 605.728 861.767 633.294 836.084 646.028C810.081 658.916 785.085 655.077 761.237 653.67C733.422 652.066 703.315 652.989 671.523 661.109C660.441 663.952 649.139 667.757 637.985 672.562C617.195 681.464 596.736 693.737 579.283 709.463C558.349 728.334 542.681 750.942 528.313 772.066C498.949 814.918 474.363 853.903 457.102 896.808C451.947 909.612 447.442 922.724 443.751 936.36" stroke="#3282B8" stroke-opacity="0.64" stroke-width="0.552088" stroke-miterlimit="10"/>
<path d="M1287.25 383.205C1265.47 355.831 1226.83 364.866 1151.17 356.992C1145.97 356.451 1140.81 355.651 1135.65 355.104C1118.23 353.261 1100.57 352.269 1084.22 355.909C1036.07 366.43 1008.79 403.76 981.038 441.25C960.01 469.656 940.525 502.778 917.951 539.95C910.76 551.789 903.723 563.765 896.465 575.656C880.733 601.434 862.324 628.595 837.291 641.763C811.95 655.089 787.572 652.629 764.257 652.446C737.06 652.274 707.668 654.462 676.595 663.371C665.762 666.491 654.708 670.51 643.782 675.46C623.425 684.628 603.304 696.924 585.959 712.396C565.16 730.955 549.24 752.916 534.481 773.293C504.304 814.634 478.456 851.571 459.659 892.763C454.046 905.056 449.057 917.684 444.87 930.885" stroke="#3282B8" stroke-opacity="0.64" stroke-width="0.552088" stroke-miterlimit="10"/>
<path d="M1286.71 379.758C1266.21 353.995 1228.86 366.169 1152.16 359.028C1147 358.548 1141.9 357.8 1136.79 357.3C1119.52 355.608 1102.07 354.681 1085.89 358.112C1038.17 368.03 1010.32 403.088 981.931 439.859C960.758 467.29 941.051 499.711 918.239 536.555C911.025 548.203 903.986 560.001 896.743 571.723C881.043 597.135 862.879 623.894 838.499 637.494C813.817 651.257 790.058 650.175 767.277 651.219C740.702 652.476 712.024 655.93 681.668 665.626C671.084 669.022 660.28 673.253 649.582 678.353C629.655 687.788 609.874 700.11 592.641 715.321C571.974 733.567 555.806 754.882 540.655 774.508C509.665 814.342 482.554 849.228 462.219 888.705C456.145 900.486 450.674 912.629 445.991 925.399" stroke="#3282B8" stroke-opacity="0.64" stroke-width="0.552088" stroke-miterlimit="10"/>
<path d="M1286.17 376.312C1266.95 352.16 1230.88 367.453 1153.14 361.066C1148.03 360.647 1142.98 359.955 1137.92 359.502C1120.8 357.964 1103.58 357.131 1087.56 360.32C1040.29 369.731 1011.85 402.43 982.823 438.475C961.515 464.94 941.581 496.652 918.527 533.163C911.292 544.62 904.247 556.241 897.02 567.794C881.355 592.841 863.436 619.195 839.706 633.229C815.682 647.43 792.545 647.727 770.299 649.994C744.342 652.683 716.381 657.399 686.742 667.887C676.406 671.558 665.852 676.005 655.381 681.249C635.888 690.953 616.444 703.296 599.318 718.25C578.783 736.187 562.365 756.853 546.825 775.728C515.02 814.051 486.647 846.889 464.775 884.654C458.243 895.923 452.287 907.583 447.109 919.922" stroke="#3282B8" stroke-opacity="0.64" stroke-width="0.552088" stroke-miterlimit="10"/>
<path d="M1285.63 372.866C1267.69 350.323 1232.91 368.72 1154.13 363.104C1149.07 362.745 1144.06 362.111 1139.06 361.7C1122.09 360.313 1105.08 359.543 1089.23 362.525C1042.4 371.331 1013.4 401.777 983.726 437.086C962.294 462.591 942.123 493.591 918.825 529.771C911.571 541.037 904.519 552.48 897.305 563.866C881.672 588.546 864 614.498 840.923 628.966C817.56 643.607 795.044 645.28 773.328 648.774C747.991 652.894 720.746 658.874 691.823 670.151C681.736 674.098 671.429 678.758 661.186 684.148C642.126 694.119 623.022 706.487 606.003 721.184C585.601 738.807 568.936 758.829 553.004 776.954C520.387 813.769 490.748 844.558 467.341 880.607C460.349 891.366 453.913 902.539 448.237 914.444" stroke="#3282B8" stroke-opacity="0.64" stroke-width="0.552088" stroke-miterlimit="10"/>
<path d="M1285.08 369.419C1268.43 348.485 1234.94 369.965 1155.11 365.143C1150.1 364.842 1145.14 364.264 1140.2 363.902C1123.37 362.669 1106.57 361.961 1090.9 364.733C1044.49 372.937 1014.95 401.137 984.612 435.7C963.067 460.251 942.65 490.534 919.108 526.377C911.834 537.453 904.774 548.715 897.577 559.934C881.978 584.25 864.553 609.799 842.125 624.699C819.422 639.776 797.526 642.83 776.343 647.548C751.624 653.095 725.094 660.34 696.887 672.409C687.05 676.632 676.994 681.505 666.976 687.042C648.347 697.28 629.581 709.672 612.671 724.11C592.403 741.422 575.488 760.795 559.164 778.17C525.732 813.475 494.83 842.213 469.889 876.552C462.439 886.799 455.519 897.489 449.346 908.96" stroke="#3282B8" stroke-opacity="0.64" stroke-width="0.552088" stroke-miterlimit="10"/>
<path d="M1284.54 365.971C1269.17 346.646 1236.97 371.186 1156.09 367.176C1151.13 366.931 1146.23 366.415 1141.34 366.097C1124.65 365.014 1108.07 364.369 1092.57 366.934C1046.6 374.533 1016.52 400.5 985.509 434.309C963.856 457.914 943.193 487.474 919.4 522.982C912.107 533.868 905.04 544.951 897.857 555.999C882.29 579.948 865.11 605.096 843.334 620.428C821.291 635.942 800.014 640.374 779.365 646.319C755.265 653.298 729.452 661.806 701.964 674.664C692.374 679.162 682.568 684.251 672.78 689.935C654.582 700.439 636.155 712.855 619.356 727.036C599.222 744.037 582.056 762.762 565.341 779.387C531.097 813.183 498.932 839.87 472.451 872.496C464.543 882.231 457.139 892.438 450.468 903.476" stroke="#3282B8" stroke-opacity="0.64" stroke-width="0.552088" stroke-miterlimit="10"/>
<path d="M1284 362.526C1269.9 344.813 1239 372.388 1157.07 369.215C1152.17 369.026 1147.31 368.57 1142.47 368.299C1125.94 367.37 1109.57 366.787 1094.24 369.141C1048.7 376.136 1018.1 399.881 986.401 432.921C964.65 455.588 943.732 484.419 919.686 519.588C912.373 530.285 905.302 541.186 898.132 552.068C882.6 575.652 865.664 600.396 844.542 616.159C823.16 632.111 802.501 637.922 782.385 645.092C758.904 653.502 733.805 663.275 707.035 676.921C697.694 681.695 688.138 686.996 678.576 692.827C660.813 703.6 642.724 716.039 626.03 729.96C606.028 746.648 588.614 764.727 571.509 780.604C536.451 812.889 503.024 837.529 475.006 868.439C466.638 877.665 458.751 887.387 451.585 897.989" stroke="#3282B8" stroke-opacity="0.64" stroke-width="0.552088" stroke-miterlimit="10"/>
<path d="M1283.45 359.079C1270.64 342.976 1241.02 373.568 1158.05 371.254C1153.2 371.117 1148.39 370.723 1143.61 370.498C1127.22 369.724 1111.07 369.171 1095.91 371.349C1050.78 377.649 1019.7 399.279 987.293 431.537C965.452 453.276 944.275 481.367 919.976 516.199C912.645 526.707 905.565 537.428 898.411 548.141C882.911 571.358 866.222 595.699 845.751 611.895C825.028 628.285 804.99 635.476 785.409 643.869C762.549 653.708 738.164 664.747 712.11 679.183C703.019 684.235 693.711 689.749 684.377 695.725C667.044 706.766 649.295 719.227 632.71 732.893C612.841 749.272 595.177 766.702 577.68 781.829C541.809 812.606 507.119 835.195 477.565 864.393C468.739 873.106 460.366 882.343 452.706 892.516" stroke="#3282B8" stroke-opacity="0.64" stroke-width="0.552088" stroke-miterlimit="10"/>
<path d="M1282.91 355.633C1271.38 341.14 1243.05 374.725 1159.04 373.292C1154.23 373.211 1149.47 372.879 1144.75 372.699C1128.51 372.079 1112.57 371.587 1097.58 373.554C1052.89 379.248 1021.31 398.689 988.192 430.148C966.27 450.97 944.827 478.314 920.268 512.804C912.92 523.125 905.831 533.664 898.691 544.21C883.225 567.063 866.78 591 846.961 607.629C826.898 624.455 807.48 633.027 788.431 642.644C766.19 653.915 742.522 666.216 717.183 681.442C708.337 686.77 699.281 692.495 690.174 698.619C673.274 709.927 655.862 722.413 639.39 735.821C619.654 751.888 601.741 768.669 583.852 783.046C547.166 812.313 511.214 832.854 480.122 860.338C470.836 868.542 461.98 877.294 453.825 887.031" stroke="#3282B8" stroke-opacity="0.64" stroke-width="0.552088" stroke-miterlimit="10"/>
<path d="M1282.37 352.187C1272.12 339.304 1245.07 375.857 1160.02 375.327C1155.26 375.298 1150.55 375.03 1145.89 374.895C1129.79 374.429 1114.06 373.997 1099.25 375.758C1054.99 380.85 1022.93 398.117 989.082 428.758C967.085 448.673 945.372 475.261 920.554 509.411C913.189 519.543 906.09 529.9 898.967 540.279C883.532 562.765 867.335 586.299 848.166 603.361C828.765 620.626 809.965 630.573 791.449 641.418C769.827 654.121 746.875 667.685 722.255 683.701C713.659 689.305 704.851 695.244 695.974 701.516C679.504 713.091 662.434 725.601 646.067 738.75C626.464 754.504 608.302 770.638 590.021 784.266C552.523 812.025 515.308 830.514 482.68 856.286C472.936 863.978 463.596 872.247 454.944 881.55" stroke="#3282B8" stroke-opacity="0.64" stroke-width="0.552088" stroke-miterlimit="10"/>
<path d="M1281.83 348.738C1272.86 337.465 1247.09 376.962 1161 377.364C1156.29 377.385 1151.63 377.192 1147.02 377.095C1131.07 376.813 1115.56 376.412 1100.92 377.964C1057.09 382.455 1024.56 397.564 989.977 427.372C967.91 446.389 945.926 472.218 920.845 506.018C913.465 515.963 906.354 526.138 899.246 536.348C883.846 558.469 867.892 581.6 849.376 599.094C830.634 616.796 812.455 628.123 794.471 640.193C773.468 654.323 751.233 669.155 727.328 685.96C718.981 691.84 710.421 697.993 701.771 704.41C685.736 716.254 669.002 728.785 652.744 741.679C633.276 757.121 614.862 772.609 596.193 785.487C557.88 811.736 519.403 828.177 485.238 852.234C475.034 859.416 465.212 867.199 456.062 876.069" stroke="#3282B8" stroke-opacity="0.64" stroke-width="0.552088" stroke-miterlimit="10"/>
<path d="M1281.28 345.294C1273.6 335.632 1249.11 378.047 1161.99 379.403C1157.33 379.476 1152.72 379.348 1148.16 379.293C1132.36 379.164 1117.06 378.826 1102.59 380.167C1059.19 384.054 1026.21 397.032 990.869 425.981C968.738 444.113 946.477 469.17 921.133 502.622C913.738 512.382 906.616 522.373 899.522 532.413C884.154 554.167 868.45 576.897 850.582 594.823C832.499 612.962 814.94 625.669 797.489 638.964C777.105 654.525 755.587 670.62 732.397 688.214C724.297 694.369 715.989 700.736 707.565 707.3C691.962 719.41 675.567 731.968 659.416 744.601C640.082 759.733 621.418 774.572 602.357 786.7C563.232 811.44 523.491 825.83 487.788 848.177C477.126 854.847 466.82 862.147 457.177 870.584" stroke="#3282B8" stroke-opacity="0.64" stroke-width="0.552088" stroke-miterlimit="10"/>
<path d="M1280.74 341.845C1274.34 333.794 1251.12 379.104 1162.97 381.438C1158.36 381.562 1153.8 381.499 1149.3 381.491C1133.64 381.514 1118.56 381.24 1104.26 382.373C1061.29 385.657 1027.86 396.524 991.764 424.595C969.57 441.856 947.034 466.131 921.423 499.229C914.013 508.805 906.88 518.611 899.799 528.483C884.466 549.873 869.005 572.199 851.791 590.559C834.368 609.135 817.429 623.223 800.513 637.741C780.75 654.731 759.946 672.091 737.473 690.477C729.622 696.909 721.563 703.489 713.366 710.198C698.194 722.576 682.139 735.156 666.099 747.532C646.897 762.35 627.983 776.545 608.532 787.922C568.593 811.151 527.589 823.491 490.35 844.124C479.23 850.283 468.439 857.1 458.299 865.103" stroke="#3282B8" stroke-opacity="0.64" stroke-width="0.552088" stroke-miterlimit="10"/>
<path d="M1280.2 338.401C1275.07 331.959 1253.13 380.136 1163.96 383.48C1159.39 383.651 1154.88 383.656 1150.44 383.694C1134.93 383.869 1120.06 383.656 1105.93 384.58C1063.4 387.259 1029.52 396.041 992.66 423.208C970.407 439.608 947.597 463.092 921.715 495.838C914.293 505.229 907.145 514.851 900.081 524.555C884.779 545.578 869.566 567.501 853.002 586.295C836.24 605.309 819.919 620.774 803.537 636.518C784.393 654.94 764.303 673.565 742.547 692.738C734.946 699.446 727.136 706.239 719.163 713.097C704.424 725.741 688.707 738.344 672.774 750.463C653.704 764.972 634.543 778.516 614.701 789.145C573.95 810.866 531.682 821.155 492.906 840.074C481.326 845.722 470.053 852.055 459.415 859.625" stroke="#3282B8" stroke-opacity="0.64" stroke-width="0.552088" stroke-miterlimit="10"/>
<path d="M1279.66 334.952C1275.81 330.121 1255.13 381.139 1164.94 385.513C1160.42 385.732 1155.97 385.806 1151.58 385.89C1136.21 386.217 1121.56 386.068 1107.6 386.783C1065.5 388.86 1031.19 395.58 993.553 421.816C971.243 437.369 948.16 460.052 922.002 492.441C914.566 501.648 907.406 511.081 900.357 520.62C885.089 541.278 870.12 562.798 854.21 582.022C838.108 601.473 822.407 618.318 806.557 635.287C788.032 655.14 768.659 675.029 747.622 694.991C740.269 701.974 732.709 708.982 724.965 715.987C710.66 728.9 695.279 741.529 679.456 753.388C660.518 767.584 641.109 780.481 620.873 790.363C579.309 810.576 535.778 818.814 495.464 836.022C483.426 841.158 471.667 847.005 460.536 854.142" stroke="#3282B8" stroke-opacity="0.64" stroke-width="0.552088" stroke-miterlimit="10"/>
<path d="M1279.11 331.506C1276.55 328.286 1257.12 382.115 1165.92 387.55C1161.45 387.815 1157.05 387.959 1152.71 388.088C1137.5 388.567 1123.06 388.482 1109.27 388.987C1067.6 390.461 1032.86 395.147 994.445 420.428C972.079 435.146 948.724 457.022 922.292 489.047C914.846 498.071 907.67 507.319 900.636 516.689C885.401 536.98 870.679 558.097 855.419 577.755C839.977 597.643 824.896 615.868 809.579 634.062C791.675 655.344 773.017 676.498 752.695 697.249C745.59 704.509 738.281 711.729 730.763 718.881C716.888 732.062 701.848 744.712 686.135 756.315C667.332 770.2 647.67 782.45 627.045 791.58C584.666 810.283 539.874 816.472 498.023 831.965C485.525 836.592 473.283 841.954 461.656 848.659" stroke="#3282B8" stroke-opacity="0.64" stroke-width="0.552088" stroke-miterlimit="10"/>
<path d="M1278.57 328.061C1277.29 326.451 1259.1 383.064 1166.9 389.591C1162.48 389.904 1158.13 390.116 1153.85 390.292C1138.78 390.922 1124.55 390.901 1110.94 391.197C1069.7 392.068 1034.54 394.749 995.337 419.044C972.911 432.942 949.329 454.03 922.578 485.658C915.13 494.509 907.93 503.56 900.911 512.761C885.71 532.688 871.232 553.401 856.624 573.491C841.844 593.818 827.383 613.42 812.597 632.84C795.311 655.554 777.37 677.971 757.764 699.514C750.91 707.05 743.848 714.484 736.558 721.781C723.115 735.228 708.413 747.902 692.808 759.248C674.139 772.821 654.229 784.425 633.211 792.805C590.02 809.999 543.964 814.138 500.578 827.919C487.622 832.033 474.896 836.912 462.774 843.182" stroke="#3282B8" stroke-opacity="0.64" stroke-width="0.552088" stroke-miterlimit="10"/>
<path d="M1278.03 324.613C1278.03 324.613 1261.09 383.983 1167.89 391.626C1074.69 399.269 1018.17 371.782 922.87 482.263C857.017 558.609 811.803 651.468 742.36 724.672C713.788 754.79 678.693 780.01 639.385 794.02C595.38 809.704 548.062 811.795 503.137 823.862C489.721 827.467 476.515 831.859 463.893 837.697" stroke="#3282B8" stroke-opacity="0.64" stroke-width="0.552088" stroke-miterlimit="10"/>
</g>
<defs>
<filter id="filter0_d" x="19.7549" y="0.724792" width="1368.68" height="1279.43" filterUnits="userSpaceOnUse" color-interpolation-filters="sRGB">
<feFlood flood-opacity="0" result="BackgroundImageFix"/>
<feColorMatrix in="SourceAlpha" type="matrix" values="0 0 0 0 0 0 0 0 0 0 0 0 0 0 0 0 0 0 127 0" result="hardAlpha"/>
<feOffset dy="4"/>
<feGaussianBlur stdDeviation="2"/>
<feComposite in2="hardAlpha" operator="out"/>
<feColorMatrix type="matrix" values="0 0 0 0 0 0 0 0 0 0 0 0 0 0 0 0 0 0 0.25 0"/>
<feBlend mode="normal" in2="BackgroundImageFix" result="effect1_dropShadow"/>
<feBlend mode="normal" in="SourceGraphic" in2="effect1_dropShadow" result="shape"/>
</filter>
</defs>
</svg>
